<svg width="146" height="117" viewBox="0 0 146 117" fill="none" xmlns="http://www.w3.org/2000/svg">
    <path d="M127.524 14.0986C128.35 13.854 129.286 14.1294 129.843 14.916L129.948 15.0801L130.306 15.6963C132.154 18.9372 134.83 24.4922 134.83 29.6572V44.2168C134.83 45.4447 133.833 46.4208 132.622 46.4209H128.205C126.986 46.4206 125.997 45.4313 125.997 44.2119V16.1875C125.997 15.158 126.657 14.3556 127.524 14.0986Z" fill="white" stroke="#00CDBD" stroke-width="2.64984"/>
    <path d="M131.959 54.5103C131.959 50.2844 136.104 47.304 140.11 48.6489C142.628 49.4945 144.325 51.854 144.325 54.5103V63.2466C144.325 65.862 142.679 68.1949 140.215 69.0718C136.19 70.5039 131.959 67.519 131.959 63.2466V54.5103Z" fill="white" stroke="#00CDBD" stroke-width="2.64984"/>
    <path d="M119.151 48.3379C119.151 43.22 124.16 39.602 129.019 41.21L133.436 42.6719C136.509 43.6893 138.584 46.5625 138.584 49.7998V67.6143C138.584 70.8026 136.57 73.6436 133.562 74.6992L129.146 76.249C124.263 77.9621 119.151 74.3383 119.151 69.1641V48.3379Z" fill="white" stroke="#00CDBD" stroke-width="2.64984"/>
    <path d="M18.4756 14.0986C17.6497 13.854 16.7137 14.1294 16.1572 14.916L16.0518 15.0801L15.6943 15.6963C13.8463 18.9372 11.1699 24.4922 11.1699 29.6572V44.2168C11.17 45.4447 12.1669 46.4208 13.3779 46.4209H17.7949C19.0143 46.4206 20.0029 45.4313 20.0029 44.2119V16.1875C20.0029 15.158 19.343 14.3556 18.4756 14.0986Z" fill="white" stroke="#00CDBD" stroke-width="2.64984"/>
    <path d="M14.041 54.5103C14.041 50.2844 9.89575 47.304 5.88965 48.6489C3.37156 49.4945 1.6748 51.854 1.6748 54.5103V63.2466C1.67494 65.862 3.32109 68.1949 5.78516 69.0718C9.81037 70.5039 14.0408 67.519 14.041 63.2466V54.5103Z" fill="white" stroke="#00CDBD" stroke-width="2.64984"/>
    <path d="M26.8486 48.3379C26.8486 43.22 21.84 39.602 16.9814 41.21L12.5645 42.6719C9.49116 43.6893 7.41602 46.5625 7.41602 49.7998V67.6143C7.41602 70.8026 9.42998 73.6436 12.4385 74.6992L16.8545 76.249C21.7369 77.9621 26.8486 74.3383 26.8486 69.1641V48.3379Z" fill="white" stroke="#00CDBD" stroke-width="2.64984"/>
    <path d="M90.6074 95.8364C96.1202 95.8364 99.7532 101.58 97.3916 106.561L95.2715 111.034C94.0289 113.654 91.3876 115.325 88.4873 115.325L57.8926 115.325C55.0545 115.325 52.459 113.724 51.1846 111.188L48.9375 106.716C46.4284 101.723 50.0576 95.8364 55.6455 95.8364L90.6074 95.8364Z" fill="white" stroke="#00CDBD" stroke-width="2.64984"/>
    <path d="M83.2031 21.1633C90.0607 21.1633 94.7728 14.2671 92.2812 7.87817C90.8223 4.13766 87.2181 1.67505 83.2031 1.67505L63.0664 1.67505C59.1228 1.67512 55.5681 4.05208 54.0615 7.69654C51.4098 14.1114 56.1251 21.1632 63.0664 21.1633L83.2031 21.1633Z" fill="white" stroke="#00CDBD" stroke-width="2.64984"/>
    <path d="M73 7.87842C104.073 7.87842 129.53 30.3533 129.53 58.3892C129.53 86.425 104.073 108.9 73 108.9C41.9273 108.9 16.4697 86.425 16.4697 58.3892C16.4697 30.3533 41.9273 7.87842 73 7.87842Z" fill="white" stroke="#00CDBD" stroke-width="2.64984"/>
    <path d="M72.8896 35.3438C84.292 35.3438 94.4683 36.6022 101.768 40.3047C105.401 42.1475 108.298 44.5847 110.292 47.7578C112.285 50.9294 113.411 54.8928 113.411 59.8457C113.411 79.6286 95.3674 95.835 72.8896 95.835C50.4121 95.8347 32.3694 79.6285 32.3691 59.8457C32.3691 54.8928 33.4954 50.9294 35.4883 47.7578C37.4821 44.5847 40.3797 42.1475 44.0127 40.3047C51.3118 36.6023 61.4875 35.3438 72.8896 35.3438Z" fill="#35383F" stroke="#424242" stroke-width="1.76656"/>
    <path d="M79.8452 22.0903C79.8452 25.4964 76.7804 28.2576 72.9997 28.2576C69.2191 28.2576 66.1543 25.4964 66.1543 22.0903C66.1543 18.6841 69.2191 17.8445 72.9997 17.8445C76.7804 17.8445 79.8452 18.6841 79.8452 22.0903Z" fill="url(#paint0_linear_1339_42306)"/>
    <path d="M98.2477 28.157C96.9087 30.484 93.7293 31.1575 91.1465 29.6613C88.5636 28.1651 87.5553 25.0658 88.8943 22.7388C90.2334 20.4118 92.6573 21.051 95.2402 22.5472C97.823 24.0434 99.5868 25.8299 98.2477 28.157Z" fill="url(#paint1_linear_1339_42306)"/>
    <path d="M47.7288 28.157C49.0679 30.484 52.2472 31.1575 54.8301 29.6613C57.4129 28.1651 58.4213 25.0658 57.0822 22.7388C55.7432 20.4118 53.3193 21.051 50.7364 22.5472C48.1535 24.0434 46.3898 25.8299 47.7288 28.157Z" fill="url(#paint2_linear_1339_42306)"/>
    <path d="M121.249 80.3232C90.2241 111.563 53.4576 110.898 24.8613 80.3232C37.2696 97.8476 51.489 106.737 72.8897 106.799C94.4039 106.862 111.312 95.4999 121.249 80.3232Z" fill="#EEEEEE"/>
    <path d="M66.1047 66.1516C68.1982 66.1516 69.9442 64.0536 69.3992 61.5962C68.7489 58.6644 67.4761 55.9618 65.6791 53.7772C62.9794 50.4954 59.3179 48.6516 55.5 48.6516C51.6821 48.6516 48.0206 50.4954 45.3209 53.7772C43.5239 55.9618 42.2511 58.6644 41.6008 61.5962C41.0558 64.0536 42.8017 66.1516 44.8953 66.1516C46.9889 66.1516 48.6081 63.9386 49.7136 61.7773C49.9865 61.2438 50.3105 60.7457 50.6818 60.2943C51.9597 58.7409 53.6928 57.8681 55.5 57.8681C57.3071 57.8681 59.0403 58.7409 60.3182 60.2943C60.6895 60.7457 61.0135 61.2438 61.2864 61.7773C62.3919 63.9386 64.0111 66.1516 66.1047 66.1516Z" fill="url(#paint3_linear_1339_42306)"/>
    <path d="M101.105 66.1516C103.198 66.1516 104.944 64.0536 104.399 61.5962C103.749 58.6644 102.476 55.9618 100.679 53.7772C97.9794 50.4954 94.3179 48.6516 90.5 48.6516C86.6821 48.6516 83.0206 50.4954 80.3209 53.7772C78.5239 55.9618 77.2511 58.6644 76.6008 61.5962C76.0558 64.0536 77.8017 66.1516 79.8953 66.1516C81.9889 66.1516 83.6081 63.9386 84.7136 61.7773C84.9865 61.2438 85.3105 60.7457 85.6818 60.2943C86.9597 58.7409 88.6928 57.8681 90.5 57.8681C92.3071 57.8681 94.0403 58.7409 95.3182 60.2943C95.6895 60.7457 96.0135 61.2438 96.2864 61.7773C97.3919 63.9386 99.0111 66.1516 101.105 66.1516Z" fill="url(#paint4_linear_1339_42306)"/>
    <path d="M80.7289 81.7558C80.7289 85.3176 77.2686 87.1916 73.0002 87.1916C68.7317 87.1916 65.2715 85.3176 65.2715 81.7558C65.2715 78.194 68.7317 77.8862 73.0002 77.8862C77.2686 77.8862 80.7289 78.194 80.7289 81.7558Z" fill="url(#paint5_linear_1339_42306)"/>
    <defs>
        <linearGradient id="paint0_linear_1339_42306" x1="79.8452" y1="28.2576" x2="64.4255" y2="22.3796" gradientUnits="userSpaceOnUse">
            <stop stop-color="#00CDBD"/>
            <stop offset="1" stop-color="#00DECD"/>
        </linearGradient>
        <linearGradient id="paint1_linear_1339_42306" x1="95.8232" y1="32.3704" x2="87.589" y2="22.2609" gradientUnits="userSpaceOnUse">
            <stop stop-color="#00CDBD"/>
            <stop offset="1" stop-color="#00DECD"/>
        </linearGradient>
        <linearGradient id="paint2_linear_1339_42306" x1="50.1534" y1="32.3704" x2="58.3876" y2="22.2609" gradientUnits="userSpaceOnUse">
            <stop stop-color="#00CDBD"/>
            <stop offset="1" stop-color="#00DECD"/>
        </linearGradient>
        <linearGradient id="paint3_linear_1339_42306" x1="69.5" y1="66.1516" x2="39.7781" y2="52.3634" gradientUnits="userSpaceOnUse">
            <stop stop-color="#00CDBD"/>
            <stop offset="1" stop-color="#00DECD"/>
        </linearGradient>
        <linearGradient id="paint4_linear_1339_42306" x1="104.5" y1="66.1516" x2="74.7781" y2="52.3634" gradientUnits="userSpaceOnUse">
            <stop stop-color="#00CDBD"/>
            <stop offset="1" stop-color="#00DECD"/>
        </linearGradient>
        <linearGradient id="paint5_linear_1339_42306" x1="80.7289" y1="87.1916" x2="64.5441" y2="79.3965" gradientUnits="userSpaceOnUse">
            <stop stop-color="#00CDBD"/>
            <stop offset="1" stop-color="#00DECD"/>
        </linearGradient>
    </defs>
</svg>
