<svg width="104" height="83" viewBox="0 0 104 83" fill="none" xmlns="http://www.w3.org/2000/svg">
    <path d="M90.9453 9.88647C91.5346 9.71153 92.2026 9.90772 92.6006 10.4685L92.6768 10.5847L92.9316 11.0242C94.2517 13.3314 96.1641 17.2875 96.1641 20.9666V31.3298C96.1639 32.2069 95.4518 32.9041 94.5869 32.9041H91.4326C90.5615 32.904 89.8555 32.197 89.8555 31.3259V11.3787C89.8555 10.6438 90.3263 10.0704 90.9453 9.88647Z" fill="white" stroke="#00CDBD" stroke-width="1.89274"/>
    <path d="M94.1143 38.6702C94.1143 35.6537 97.0711 33.5248 99.9316 34.4817C101.733 35.0843 102.947 36.7711 102.947 38.6702V44.8674C102.947 46.7374 101.769 48.4054 100.007 49.0305C97.1323 50.0499 94.1143 47.9174 94.1143 44.8674V38.6702Z" fill="white" stroke="#00CDBD" stroke-width="1.89274"/>
    <path d="M84.9658 34.2793C84.9659 30.6259 88.5393 28.0419 92.0088 29.1865L95.1631 30.2275C97.361 30.9526 98.8457 33.0059 98.8457 35.3203V47.9746C98.8457 50.254 97.4046 52.2847 95.2529 53.0371L92.0986 54.1406C88.6122 55.3597 84.9658 52.7716 84.9658 49.0781V34.2793Z" fill="white" stroke="#00CDBD" stroke-width="1.89274"/>
    <path d="M13.0557 9.88647C12.4664 9.71153 11.7984 9.90772 11.4004 10.4685L11.3242 10.5847L11.0693 11.0242C9.7493 13.3314 7.83691 17.2875 7.83691 20.9666V31.3298C7.8371 32.2069 8.54916 32.9041 9.41406 32.9041H12.5684C13.4394 32.904 14.1455 32.197 14.1455 31.3259V11.3787C14.1455 10.6438 13.6747 10.0704 13.0557 9.88647Z" fill="white" stroke="#00CDBD" stroke-width="1.89274"/>
    <path d="M9.88672 38.6702C9.88672 35.6537 6.9299 33.5248 4.06934 34.4817C2.2684 35.0843 1.05371 36.7711 1.05371 38.6702V44.8674C1.05371 46.7374 2.23176 48.4054 3.99414 49.0305C6.86864 50.0499 9.88672 47.9174 9.88672 44.8674V38.6702Z" fill="white" stroke="#00CDBD" stroke-width="1.89274"/>
    <path d="M19.0352 34.2793C19.0351 30.6259 15.4617 28.0419 11.9922 29.1865L8.83789 30.2275C6.64001 30.9526 5.15527 33.0059 5.15527 35.3203V47.9746C5.15527 50.254 6.59641 52.2847 8.74805 53.0371L11.9023 54.1406C15.3888 55.3597 19.0352 52.7716 19.0352 49.0781V34.2793Z" fill="white" stroke="#00CDBD" stroke-width="1.89274"/>
    <path d="M64.5674 68.0771C68.5079 68.0773 71.1026 72.1847 69.4102 75.7432L67.9092 78.8984C67.0202 80.7668 65.1355 81.957 63.0664 81.957L41.2051 81.957C39.1804 81.9569 37.3285 80.8166 36.417 79.0088L34.8262 75.8545C33.0278 72.2877 35.6207 68.0771 39.6152 68.0771L64.5674 68.0771Z" fill="white" stroke="#00CDBD" stroke-width="1.89274"/>
    <path d="M59.3066 14.9224C64.194 14.9222 67.5503 10.005 65.7695 5.45361C64.7285 2.79317 62.1635 1.04255 59.3066 1.04248L44.8857 1.04248C42.08 1.04257 39.5505 2.73207 38.4756 5.32373C36.5803 9.89359 39.9385 14.9222 44.8857 14.9224L59.3066 14.9224Z" fill="white" stroke="#00CDBD" stroke-width="1.89274"/>
    <path d="M52 5.45874C74.1914 5.45895 92.3778 21.457 92.3779 41.4207C92.3779 61.3844 74.1914 77.3824 52 77.3826C29.8084 77.3826 11.6211 61.3845 11.6211 41.4207C11.6212 21.4568 29.8084 5.45874 52 5.45874Z" fill="white" stroke="#00CDBD" stroke-width="1.89274"/>
    <path d="M51.9209 25.0171C60.0653 25.0171 67.3339 25.9125 72.5479 28.5483C75.143 29.8603 77.2128 31.5955 78.6367 33.854C80.0599 36.1114 80.8642 38.9323 80.8643 42.4575C80.8643 56.5381 67.9786 68.0766 51.9209 68.0767C35.8632 68.0767 22.9775 56.5381 22.9775 42.4575C22.9776 38.9323 23.781 36.1114 25.2041 33.854C26.628 31.5955 28.6978 29.8604 31.293 28.5483C36.507 25.9124 43.7763 25.0171 51.9209 25.0171Z" fill="#35383F" stroke="#424242" stroke-width="1.26183"/>
    <path d="M56.8895 15.5793C56.8895 18.0041 54.7004 19.9699 51.9999 19.9699C49.2995 19.9699 47.1104 18.0041 47.1104 15.5793C47.1104 13.1544 49.2995 12.5566 51.9999 12.5566C54.7004 12.5566 56.8895 13.1544 56.8895 15.5793Z" fill="url(#paint0_linear_3739_1957)"/>
    <path d="M70.0337 19.8984C69.0772 21.555 66.8063 22.0345 64.9614 20.9693C63.1165 19.9042 62.3962 17.6977 63.3527 16.0411C64.3091 14.3844 66.0405 14.8396 67.8854 15.9047C69.7303 16.9699 70.9901 18.2417 70.0337 19.8984Z" fill="url(#paint1_linear_3739_1957)"/>
    <path d="M33.9497 19.8984C34.9062 21.555 37.1771 22.0345 39.022 20.9693C40.8669 19.9042 41.5872 17.6977 40.6307 16.0411C39.6743 14.3844 37.9429 14.8396 36.098 15.9047C34.2531 16.9699 32.9933 18.2417 33.9497 19.8984Z" fill="url(#paint2_linear_3739_1957)"/>
    <path d="M86.4638 57.0361C64.3029 79.2759 38.0411 78.8027 17.6152 57.0361C26.4783 69.5119 36.635 75.8405 51.9212 75.8847C67.2885 75.9292 79.366 67.8405 86.4638 57.0361Z" fill="#EEEEEE"/>
    <path d="M47.0747 36.1013C48.5701 36.1013 49.8173 37.5999 49.428 39.3552C48.9635 41.4494 48.0543 43.3798 46.7708 44.9402C44.8424 47.2844 42.2271 48.6013 39.5 48.6013C36.7729 48.6013 34.1575 47.2844 32.2292 44.9402C30.9456 43.3798 30.0365 41.4494 29.572 39.3552C29.1827 37.5999 30.4298 36.1013 31.9252 36.1013C33.4206 36.1013 34.5772 37.6821 35.3668 39.2258C35.5618 39.6069 35.7932 39.9627 36.0584 40.2851C36.9712 41.3947 38.2091 42.0181 39.5 42.0181C40.7908 42.0181 42.0288 41.3947 42.9415 40.2851C43.2067 39.9627 43.4382 39.6069 43.6331 39.2258C44.4228 37.6821 45.5793 36.1013 47.0747 36.1013Z" fill="url(#paint3_linear_3739_1957)"/>
    <path d="M72.0747 36.1013C73.5701 36.1013 74.8173 37.5999 74.428 39.3552C73.9635 41.4494 73.0543 43.3798 71.7708 44.9402C69.8424 47.2844 67.2271 48.6013 64.5 48.6013C61.7729 48.6013 59.1575 47.2844 57.2292 44.9402C55.9456 43.3798 55.0365 41.4494 54.572 39.3552C54.1827 37.5999 55.4298 36.1013 56.9252 36.1013C58.4206 36.1013 59.5772 37.6821 60.3668 39.2258C60.5618 39.6069 60.7932 39.9627 61.0584 40.2851C61.9712 41.3947 63.2091 42.0181 64.5 42.0181C65.7908 42.0181 67.0288 41.3947 67.9415 40.2851C68.2067 39.9627 68.4382 39.6069 68.6331 39.2258C69.4228 37.6821 70.5793 36.1013 72.0747 36.1013Z" fill="url(#paint4_linear_3739_1957)"/>
    <circle cx="51.7002" cy="57.9263" r="4.68749" fill="url(#paint5_linear_3739_1957)"/>
    <defs>
        <linearGradient id="paint0_linear_3739_1957" x1="56.8895" y1="19.9699" x2="45.8848" y2="15.7609" gradientUnits="userSpaceOnUse">
            <stop stop-color="#00CDBD"/>
            <stop offset="1" stop-color="#00DECD"/>
        </linearGradient>
        <linearGradient id="paint1_linear_3739_1957" x1="68.3018" y1="22.898" x2="62.4438" y2="15.6818" gradientUnits="userSpaceOnUse">
            <stop stop-color="#00CDBD"/>
            <stop offset="1" stop-color="#00DECD"/>
        </linearGradient>
        <linearGradient id="paint2_linear_3739_1957" x1="35.6816" y1="22.898" x2="41.5396" y2="15.6818" gradientUnits="userSpaceOnUse">
            <stop stop-color="#00CDBD"/>
            <stop offset="1" stop-color="#00DECD"/>
        </linearGradient>
        <linearGradient id="paint3_linear_3739_1957" x1="49.5" y1="36.1013" x2="28.27" y2="45.95" gradientUnits="userSpaceOnUse">
            <stop stop-color="#00CDBD"/>
            <stop offset="1" stop-color="#00DECD"/>
        </linearGradient>
        <linearGradient id="paint4_linear_3739_1957" x1="74.5" y1="36.1013" x2="53.27" y2="45.95" gradientUnits="userSpaceOnUse">
            <stop stop-color="#00CDBD"/>
            <stop offset="1" stop-color="#00DECD"/>
        </linearGradient>
        <linearGradient id="paint5_linear_3739_1957" x1="56.3877" y1="62.6138" x2="45.2323" y2="59.3793" gradientUnits="userSpaceOnUse">
            <stop stop-color="#00CDBD"/>
            <stop offset="1" stop-color="#00DECD"/>
        </linearGradient>
    </defs>
</svg>
