<svg width="108" height="87" viewBox="0 0 108 87" fill="none" xmlns="http://www.w3.org/2000/svg">
    <path d="M93.0645 12.3135C94.2803 11.9678 95.5994 12.4976 96.248 13.7334C97.4771 16.0755 98.9775 19.5864 98.9775 22.9668V32.7852C98.9775 34.4082 97.6615 35.7176 96.0439 35.7178H93.9746C92.3542 35.7178 91.0402 34.4045 91.04 32.7842V15.0791C91.04 13.7411 91.8826 12.6496 93.0645 12.3135Z" fill="white" stroke="#00CDBD" stroke-width="3.52095"/>
    <path d="M95.2988 40.6704C95.2988 37.0978 98.8014 34.5768 102.189 35.7104C104.322 36.4242 105.76 38.4213 105.76 40.6704V46.8677C105.76 49.0822 104.365 51.0569 102.278 51.7974C98.8739 53.0049 95.2988 50.4799 95.2988 46.8677V40.6704Z" fill="white" stroke="#00CDBD" stroke-width="3.52095"/>
    <path d="M86.1504 38.4609C86.1504 33.1784 91.3174 29.4418 96.334 31.0967C99.5119 32.1451 101.659 35.1145 101.659 38.4609V48.8555C101.659 52.1512 99.5757 55.0867 96.4648 56.1748C91.4236 57.9377 86.1504 54.196 86.1504 48.8555V38.4609Z" fill="white" stroke="#00CDBD" stroke-width="3.52095"/>
    <path d="M14.9346 12.3135C13.7187 11.9678 12.3996 12.4976 11.751 13.7334C10.5219 16.0755 9.02148 19.5864 9.02148 22.9668V32.7852C9.02148 34.4082 10.3375 35.7175 11.9551 35.7178H14.0244C15.6448 35.7178 16.9588 34.4045 16.959 32.7842V15.0791C16.959 13.7411 16.1165 12.6496 14.9346 12.3135Z" fill="white" stroke="#00CDBD" stroke-width="3.52095"/>
    <path d="M12.7002 40.6704C12.7002 37.0977 9.19758 34.5768 5.80957 35.7104C3.67676 36.4242 2.23926 38.4213 2.23926 40.6704V46.8677C2.23926 49.0822 3.63362 51.0569 5.7207 51.7974C9.12514 53.0049 12.7002 50.4799 12.7002 46.8677V40.6704Z" fill="white" stroke="#00CDBD" stroke-width="3.52095"/>
    <path d="M21.8486 38.4609C21.8486 33.1784 16.6816 29.4419 11.665 31.0967C8.48708 32.1451 6.33984 35.1145 6.33984 38.4609V48.8555C6.33984 52.1512 8.42332 55.0867 11.5342 56.1748C16.5754 57.9377 21.8486 54.196 21.8486 48.8555V38.4609Z" fill="white" stroke="#00CDBD" stroke-width="3.52095"/>
    <path d="M64.0703 69.2629C69.7682 69.263 73.5197 75.2025 71.0723 80.3479C69.787 83.0498 67.0623 84.7717 64.0703 84.7717L44.1768 84.7717C41.2491 84.7717 38.571 83.1222 37.2529 80.5081C34.6528 75.3509 38.4011 69.2629 44.1768 69.2629L64.0703 69.2629Z" fill="white" stroke="#00CDBD" stroke-width="3.52095"/>
    <path d="M61.3066 17.7368C66.7674 17.7367 70.5172 12.2421 68.5273 7.15674C67.3642 4.18433 64.4985 2.22809 61.3066 2.22803L46.8857 2.22803C43.751 2.22813 40.9247 4.11579 39.7236 7.01123C37.6059 12.1172 41.3581 17.7367 46.8857 17.7368L61.3066 17.7368Z" fill="white" stroke="#00CDBD" stroke-width="3.52095"/>
    <path d="M54 6.64453C76.5474 6.64476 95.1923 22.9194 95.1924 43.4209C95.1924 63.9225 76.5474 80.197 54 80.1973C31.4524 80.1973 12.8066 63.9226 12.8066 43.4209C12.8067 22.9193 31.4524 6.64453 54 6.64453Z" fill="white" stroke="#00CDBD" stroke-width="3.52095"/>
    <path d="M53.9209 27.5601C62.0465 27.5601 69.2083 28.4567 74.3037 31.0327C76.8295 32.3097 78.8163 33.9845 80.1777 36.144C81.5377 38.3013 82.3213 41.0176 82.3213 44.4575C82.3213 58.1793 69.7414 69.5346 53.9209 69.5347C38.1003 69.5347 25.5205 58.1794 25.5205 44.4575C25.5205 41.0176 26.3041 38.3013 27.6641 36.144C29.0256 33.9845 31.0122 32.3097 33.5381 31.0327C38.6335 28.4567 45.7952 27.5601 53.9209 27.5601Z" fill="#35383F" stroke="#424242" stroke-width="2.3473"/>
    <path d="M58.8895 17.5795C58.8895 20.0044 56.7004 21.9701 53.9999 21.9701C51.2995 21.9701 49.1104 20.0044 49.1104 17.5795C49.1104 15.1546 51.2995 14.5569 53.9999 14.5569C56.7004 14.5569 58.8895 15.1546 58.8895 17.5795Z" fill="url(#paint0_linear_3721_3597)"/>
    <path d="M72.0337 21.8986C71.0772 23.5552 68.8063 24.0347 66.9614 22.9696C65.1165 21.9044 64.3962 19.698 65.3527 18.0413C66.3091 16.3847 68.0405 16.8398 69.8854 17.905C71.7303 18.9701 72.9901 20.242 72.0337 21.8986Z" fill="url(#paint1_linear_3721_3597)"/>
    <path d="M35.9488 21.8983C36.9052 23.555 39.1762 24.0345 41.0211 22.9693C42.866 21.9042 43.5862 19.6977 42.6297 18.0411C41.6733 16.3844 39.9419 16.8396 38.097 17.9047C36.2521 18.9699 34.9923 20.2417 35.9488 21.8983Z" fill="url(#paint2_linear_3721_3597)"/>
    <path d="M88.4637 59.0361C66.3029 81.2759 40.0411 80.8027 19.6152 59.0361C28.4783 71.5119 38.635 77.8404 53.9212 77.8847C69.2884 77.9292 81.366 69.8405 88.4637 59.0361Z" fill="#EEEEEE"/>
    <path d="M51.5 48.5594C51.5 48.8961 51.3821 49.1823 51.1464 49.418L49.4293 51.1352C49.1936 51.3709 48.9074 51.4887 48.5707 51.4887C48.234 51.4887 47.9478 51.3709 47.7121 51.1352L44 47.4231L40.2879 51.1352C40.0522 51.3709 39.766 51.4887 39.4293 51.4887C39.0926 51.4887 38.8064 51.3709 38.5707 51.1352L36.8535 49.418C36.6178 49.1823 36.5 48.8961 36.5 48.5594C36.5 48.2227 36.6178 47.9366 36.8535 47.7009L40.5656 43.9888L36.8535 40.2766C36.6178 40.0409 36.5 39.7548 36.5 39.4181C36.5 39.0814 36.6178 38.7952 36.8535 38.5595L38.5707 36.8423C38.8064 36.6066 39.0926 36.4888 39.4293 36.4888C39.766 36.4888 40.0522 36.6066 40.2879 36.8423L44 40.5544L47.7121 36.8423C47.9478 36.6066 48.234 36.4888 48.5707 36.4888C48.9074 36.4888 49.1936 36.6066 49.4293 36.8423L51.1464 38.5595C51.3821 38.7952 51.5 39.0814 51.5 39.4181C51.5 39.7548 51.3821 40.0409 51.1464 40.2766L47.4343 43.9888L51.1464 47.7009C51.3821 47.9366 51.5 48.2227 51.5 48.5594Z" fill="url(#paint3_linear_3721_3597)"/>
    <path d="M71.5 48.5594C71.5 48.8961 71.3821 49.1823 71.1464 49.418L69.4293 51.1352C69.1936 51.3709 68.9074 51.4887 68.5707 51.4887C68.234 51.4887 67.9478 51.3709 67.7121 51.1352L64 47.4231L60.2879 51.1352C60.0522 51.3709 59.766 51.4887 59.4293 51.4887C59.0926 51.4887 58.8064 51.3709 58.5707 51.1352L56.8535 49.418C56.6178 49.1823 56.5 48.8961 56.5 48.5594C56.5 48.2227 56.6178 47.9366 56.8535 47.7009L60.5656 43.9888L56.8535 40.2766C56.6178 40.0409 56.5 39.7548 56.5 39.4181C56.5 39.0814 56.6178 38.7952 56.8535 38.5595L58.5707 36.8423C58.8064 36.6066 59.0926 36.4888 59.4293 36.4888C59.766 36.4888 60.0522 36.6066 60.2879 36.8423L64 40.5544L67.7121 36.8423C67.9478 36.6066 68.234 36.4888 68.5707 36.4888C68.9074 36.4888 69.1936 36.6066 69.4293 36.8423L71.1464 38.5595C71.3821 38.7952 71.5 39.0814 71.5 39.4181C71.5 39.7548 71.3821 40.0409 71.1464 40.2766L67.4343 43.9888L71.1464 47.7009C71.3821 47.9366 71.5 48.2227 71.5 48.5594Z" fill="url(#paint4_linear_3721_3597)"/>
    <path d="M58.0801 61.8013C58.8527 61.8013 59.497 61.1644 59.2959 60.4184C59.0559 59.5283 58.5862 58.7079 57.923 58.0448C56.9268 57.0485 55.5755 56.4888 54.1666 56.4888C52.7576 56.4888 51.4063 57.0485 50.4101 58.0448C49.7469 58.7079 49.2772 59.5283 49.0372 60.4184C48.8361 61.1644 49.4804 61.8013 50.253 61.8013C51.0256 61.8013 51.6232 61.1295 52.0311 60.4733C52.1318 60.3114 52.2514 60.1602 52.3885 60.0232C52.86 59.5516 53.4996 59.2866 54.1666 59.2866C54.8335 59.2866 55.4731 59.5516 55.9447 60.0232C56.0817 60.1602 56.2013 60.3114 56.302 60.4733C56.7099 61.1295 57.3075 61.8013 58.0801 61.8013Z" fill="url(#paint5_linear_3721_3597)"/>
    <defs>
        <linearGradient id="paint0_linear_3721_3597" x1="58.8895" y1="21.9701" x2="47.8848" y2="17.7611" gradientUnits="userSpaceOnUse">
            <stop stop-color="#00CDBD"/>
            <stop offset="1" stop-color="#00DECD"/>
        </linearGradient>
        <linearGradient id="paint1_linear_3721_3597" x1="70.3018" y1="24.8982" x2="64.4438" y2="17.682" gradientUnits="userSpaceOnUse">
            <stop stop-color="#00CDBD"/>
            <stop offset="1" stop-color="#00DECD"/>
        </linearGradient>
        <linearGradient id="paint2_linear_3721_3597" x1="37.6806" y1="24.8979" x2="43.5386" y2="17.6818" gradientUnits="userSpaceOnUse">
            <stop stop-color="#00CDBD"/>
            <stop offset="1" stop-color="#00DECD"/>
        </linearGradient>
        <linearGradient id="paint3_linear_3721_3597" x1="51.5" y1="51.4887" x2="33.6514" y2="46.3137" gradientUnits="userSpaceOnUse">
            <stop stop-color="#00CDBD"/>
            <stop offset="1" stop-color="#00DECD"/>
        </linearGradient>
        <linearGradient id="paint4_linear_3721_3597" x1="71.5" y1="51.4887" x2="53.6514" y2="46.3137" gradientUnits="userSpaceOnUse">
            <stop stop-color="#00CDBD"/>
            <stop offset="1" stop-color="#00DECD"/>
        </linearGradient>
        <linearGradient id="paint5_linear_3721_3597" x1="59.3331" y1="61.8013" x2="49.2203" y2="56.0981" gradientUnits="userSpaceOnUse">
            <stop stop-color="#00CDBD"/>
            <stop offset="1" stop-color="#00DECD"/>
        </linearGradient>
    </defs>
</svg>
