<svg width="108" height="87" viewBox="0 0 108 87" fill="none" xmlns="http://www.w3.org/2000/svg">
    <path d="M93.0654 12.3132C94.2813 11.9675 95.6004 12.4974 96.249 13.7332C97.4781 16.0753 98.9785 19.5862 98.9785 22.9666V32.7849C98.9785 34.408 97.6625 35.7173 96.0449 35.7175H93.9756C92.3552 35.7175 91.0412 34.4043 91.041 32.7839V15.0789C91.041 13.7408 91.8835 12.6494 93.0654 12.3132Z" fill="white" stroke="#00CDBD" stroke-width="3.52095"/>
    <path d="M95.2998 40.6704C95.2998 37.0978 98.8024 34.5768 102.19 35.7104C104.323 36.4242 105.761 38.4213 105.761 40.6704V46.8677C105.761 49.0822 104.366 51.057 102.279 51.7974C98.8749 53.0049 95.2998 50.4799 95.2998 46.8677V40.6704Z" fill="white" stroke="#00CDBD" stroke-width="3.52095"/>
    <path d="M86.1514 38.4609C86.1514 33.1784 91.3184 29.4419 96.335 31.0967C99.5129 32.1451 101.66 35.1145 101.66 38.4609V48.8555C101.66 52.1512 99.5767 55.0867 96.4658 56.1748C91.4246 57.9377 86.1514 54.196 86.1514 48.8555V38.4609Z" fill="white" stroke="#00CDBD" stroke-width="3.52095"/>
    <path d="M14.9346 12.3132C13.7187 11.9675 12.3996 12.4974 11.751 13.7332C10.5219 16.0753 9.02148 19.5862 9.02148 22.9666V32.7849C9.02148 34.408 10.3375 35.7173 11.9551 35.7175H14.0244C15.6448 35.7175 16.9588 34.4043 16.959 32.7839V15.0789C16.959 13.7408 16.1165 12.6494 14.9346 12.3132Z" fill="white" stroke="#00CDBD" stroke-width="3.52095"/>
    <path d="M12.7002 40.6704C12.7002 37.0978 9.19759 34.5768 5.80957 35.7104C3.67675 36.4242 2.23926 38.4213 2.23926 40.6704V46.8677C2.23926 49.0822 3.63362 51.0569 5.7207 51.7974C9.12515 53.0049 12.7002 50.4799 12.7002 46.8677V40.6704Z" fill="white" stroke="#00CDBD" stroke-width="3.52095"/>
    <path d="M21.8486 38.4609C21.8486 33.1784 16.6816 29.4419 11.665 31.0967C8.48707 32.1451 6.33984 35.1145 6.33984 38.4609V48.8555C6.33984 52.1512 8.42333 55.0867 11.5342 56.1748C16.5754 57.9377 21.8486 54.196 21.8486 48.8555V38.4609Z" fill="white" stroke="#00CDBD" stroke-width="3.52095"/>
    <path d="M64.0703 69.2629C69.7682 69.263 73.5197 75.2025 71.0723 80.3479C69.787 83.0498 67.0623 84.7717 64.0703 84.7717L44.1768 84.7717C41.2491 84.7717 38.571 83.1222 37.2529 80.5081C34.6528 75.3509 38.4011 69.2629 44.1768 69.2629L64.0703 69.2629Z" fill="white" stroke="#00CDBD" stroke-width="3.52095"/>
    <path d="M61.3066 17.7368C66.7674 17.7367 70.5172 12.2421 68.5273 7.15674C67.3642 4.18432 64.4985 2.2281 61.3066 2.22803L46.8857 2.22803C43.751 2.22812 40.9248 4.11578 39.7236 7.01123C37.6059 12.1172 41.358 17.7367 46.8857 17.7368L61.3066 17.7368Z" fill="white" stroke="#00CDBD" stroke-width="3.52095"/>
    <path d="M54 6.64429C76.5474 6.64449 95.1923 22.9191 95.1924 43.4207C95.1924 63.9223 76.5475 80.1968 54 80.197C31.4523 80.197 12.8066 63.9224 12.8066 43.4207C12.8067 22.919 31.4524 6.64429 54 6.64429Z" fill="white" stroke="#00CDBD" stroke-width="3.52095"/>
    <path d="M53.9209 27.5601C62.0466 27.5601 69.2083 28.4567 74.3037 31.0327C76.8295 32.3097 78.8163 33.9845 80.1777 36.144C81.5377 38.3013 82.3213 41.0176 82.3213 44.4575C82.3213 58.1794 69.7415 69.5346 53.9209 69.5347C38.1003 69.5347 25.5205 58.1794 25.5205 44.4575C25.5205 41.0176 26.304 38.3013 27.6641 36.144C29.0256 33.9845 31.0122 32.3097 33.5381 31.0327C38.6335 28.4567 45.7952 27.5601 53.9209 27.5601Z" fill="#35383F" stroke="#424242" stroke-width="2.3473"/>
    <path d="M58.8895 17.5793C58.8895 20.0041 56.7004 21.9699 53.9999 21.9699C51.2995 21.9699 49.1104 20.0041 49.1104 17.5793C49.1104 15.1544 51.2995 14.5566 53.9999 14.5566C56.7004 14.5566 58.8895 15.1544 58.8895 17.5793Z" fill="url(#paint0_linear_3721_515)"/>
    <path d="M72.0346 21.8984C71.0782 23.555 68.8072 24.0345 66.9623 22.9693C65.1174 21.9042 64.3972 19.6977 65.3537 18.0411C66.3101 16.3844 68.0415 16.8396 69.8864 17.9047C71.7313 18.9699 72.9911 20.2417 72.0346 21.8984Z" fill="url(#paint1_linear_3721_515)"/>
    <path d="M35.9497 21.8984C36.9062 23.555 39.1771 24.0345 41.022 22.9693C42.8669 21.9042 43.5872 19.6977 42.6307 18.0411C41.6743 16.3844 39.9429 16.8396 38.098 17.9047C36.2531 18.9699 34.9933 20.2417 35.9497 21.8984Z" fill="url(#paint2_linear_3721_515)"/>
    <path d="M88.4638 59.0361C66.303 81.2759 40.0411 80.8027 19.6152 59.0361C28.4783 71.5119 38.635 77.8405 53.9212 77.8847C69.2885 77.9292 81.3661 69.8406 88.4638 59.0361Z" fill="#EEEEEE"/>
    <path d="M47.4168 46.4322C47.1578 46.6832 47.0388 47.0461 47.0978 47.4021L47.9867 52.3214C48.0617 52.7384 47.8857 53.1603 47.5368 53.4013C47.1948 53.6513 46.7399 53.6813 46.3669 53.4813L41.9385 51.1716C41.7845 51.0896 41.6135 51.0456 41.4386 51.0406H41.1676C41.0736 51.0546 40.9816 51.0846 40.8976 51.1306L36.4682 53.4513C36.2492 53.5613 36.0013 53.6003 35.7583 53.5613C35.1664 53.4493 34.7714 52.8854 34.8684 52.2904L35.7583 47.3711C35.8173 47.0121 35.6983 46.6472 35.4394 46.3922L31.8288 42.8927C31.5269 42.5997 31.4219 42.1598 31.5599 41.7628C31.6939 41.3669 32.0358 41.0779 32.4488 41.0129L37.4181 40.292C37.796 40.253 38.128 40.0231 38.298 39.6831L40.4877 35.1937C40.5397 35.0937 40.6067 35.0017 40.6877 34.9237L40.7777 34.8537C40.8246 34.8017 40.8786 34.7588 40.9386 34.7238L41.0476 34.6838L41.2176 34.6138H41.6385C42.0145 34.6528 42.3454 34.8777 42.5184 35.2137L44.7371 39.6831C44.8971 40.0101 45.2081 40.237 45.567 40.292L50.5364 41.0129C50.9563 41.0729 51.3073 41.3629 51.4462 41.7628C51.5772 42.1638 51.4642 42.6037 51.1563 42.8927L47.4168 46.4322Z" fill="url(#paint3_linear_3721_515)"/>
    <path d="M44.4584 46.0706C44.3289 46.1945 44.2694 46.3736 44.2989 46.5492L44.7434 48.9767C44.7808 49.1824 44.6929 49.3906 44.5184 49.5095C44.3474 49.6329 44.1199 49.6477 43.9335 49.549L41.7192 48.4093C41.6423 48.3688 41.5568 48.3471 41.4693 48.3446H41.3338C41.2868 48.3515 41.2408 48.3663 41.1988 48.389L38.9841 49.5342C38.8746 49.5885 38.7506 49.6077 38.6292 49.5885C38.3332 49.5332 38.1357 49.2549 38.1842 48.9614L38.6292 46.5339C38.6587 46.3568 38.5992 46.1767 38.4697 46.0509L36.6644 44.324C36.5134 44.1795 36.4609 43.9624 36.5299 43.7665C36.5969 43.5711 36.7679 43.4285 36.9744 43.3965L39.459 43.0407C39.648 43.0215 39.814 42.908 39.899 42.7402L40.9938 40.5249C41.0198 40.4756 41.0533 40.4302 41.0938 40.3917L41.1388 40.3572C41.1623 40.3315 41.1893 40.3103 41.2193 40.293L41.2738 40.2733L41.3588 40.2388H41.5693C41.7572 40.258 41.9227 40.369 42.0092 40.5348L43.1186 42.7402C43.1986 42.9016 43.354 43.0136 43.5335 43.0407L46.0182 43.3965C46.2282 43.4261 46.4036 43.5691 46.4731 43.7665C46.5386 43.9643 46.4821 44.1814 46.3281 44.324L44.4584 46.0706Z" fill="white"/>
    <path d="M72.4168 46.4322C72.1578 46.6832 72.0388 47.0461 72.0978 47.4021L72.9867 52.3214C73.0617 52.7384 72.8857 53.1603 72.5368 53.4013C72.1948 53.6513 71.7399 53.6813 71.3669 53.4813L66.9385 51.1716C66.7845 51.0896 66.6135 51.0456 66.4386 51.0406H66.1676C66.0736 51.0546 65.9816 51.0846 65.8976 51.1306L61.4682 53.4513C61.2492 53.5613 61.0013 53.6003 60.7583 53.5613C60.1664 53.4493 59.7714 52.8854 59.8684 52.2904L60.7583 47.3711C60.8173 47.0121 60.6983 46.6472 60.4394 46.3922L56.8288 42.8927C56.5269 42.5997 56.4219 42.1598 56.5599 41.7628C56.6939 41.3669 57.0358 41.0779 57.4488 41.0129L62.4181 40.292C62.796 40.253 63.128 40.0231 63.298 39.6831L65.4877 35.1937C65.5397 35.0937 65.6067 35.0017 65.6877 34.9237L65.7777 34.8537C65.8246 34.8017 65.8786 34.7588 65.9386 34.7238L66.0476 34.6838L66.2176 34.6138H66.6385C67.0145 34.6528 67.3454 34.8777 67.5184 35.2137L69.7371 39.6831C69.8971 40.0101 70.2081 40.237 70.567 40.292L75.5364 41.0129C75.9563 41.0729 76.3073 41.3629 76.4462 41.7628C76.5772 42.1638 76.4642 42.6037 76.1563 42.8927L72.4168 46.4322Z" fill="url(#paint4_linear_3721_515)"/>
    <path d="M69.4584 46.0706C69.3289 46.1945 69.2694 46.3736 69.2989 46.5492L69.7434 48.9767C69.7808 49.1824 69.6929 49.3906 69.5184 49.5095C69.3474 49.6329 69.1199 49.6477 68.9335 49.549L66.7192 48.4093C66.6423 48.3688 66.5568 48.3471 66.4693 48.3446H66.3338C66.2868 48.3515 66.2408 48.3663 66.1988 48.389L63.9841 49.5342C63.8746 49.5885 63.7506 49.6077 63.6292 49.5885C63.3332 49.5332 63.1357 49.2549 63.1842 48.9614L63.6292 46.5339C63.6587 46.3568 63.5992 46.1767 63.4697 46.0509L61.6644 44.324C61.5134 44.1795 61.4609 43.9624 61.5299 43.7665C61.5969 43.5711 61.7679 43.4285 61.9744 43.3965L64.459 43.0407C64.648 43.0215 64.814 42.908 64.899 42.7402L65.9938 40.5249C66.0198 40.4756 66.0533 40.4302 66.0938 40.3917L66.1388 40.3572C66.1623 40.3315 66.1893 40.3103 66.2193 40.293L66.2738 40.2733L66.3588 40.2388H66.5693C66.7572 40.258 66.9227 40.369 67.0092 40.5348L68.1186 42.7402C68.1986 42.9016 68.354 43.0136 68.5335 43.0407L71.0182 43.3965C71.2282 43.4261 71.4036 43.5691 71.4731 43.7665C71.5386 43.9643 71.4821 44.1814 71.3281 44.324L69.4584 46.0706Z" fill="white"/>
    <path d="M59.5205 60.0558C59.5205 62.5915 57.0489 63.9256 54 63.9256C50.9511 63.9256 48.4795 62.5915 48.4795 60.0558C48.4795 57.5201 50.9511 57.301 54 57.301C57.0489 57.301 59.5205 57.5201 59.5205 60.0558Z" fill="url(#paint5_linear_3721_515)"/>
    <defs>
        <linearGradient id="paint0_linear_3721_515" x1="58.8895" y1="21.9699" x2="47.8848" y2="17.7609" gradientUnits="userSpaceOnUse">
            <stop stop-color="#00CDBD"/>
            <stop offset="1" stop-color="#00DECD"/>
        </linearGradient>
        <linearGradient id="paint1_linear_3721_515" x1="70.3028" y1="24.898" x2="64.4448" y2="17.6818" gradientUnits="userSpaceOnUse">
            <stop stop-color="#00CDBD"/>
            <stop offset="1" stop-color="#00DECD"/>
        </linearGradient>
        <linearGradient id="paint2_linear_3721_515" x1="37.6815" y1="24.898" x2="43.5396" y2="17.6818" gradientUnits="userSpaceOnUse">
            <stop stop-color="#00CDBD"/>
            <stop offset="1" stop-color="#00DECD"/>
        </linearGradient>
        <linearGradient id="paint3_linear_3721_515" x1="51.5" y1="53.6125" x2="27.8998" y2="46.4093" gradientUnits="userSpaceOnUse">
            <stop stop-color="#00CDBD"/>
            <stop offset="1" stop-color="#00DECD"/>
        </linearGradient>
        <linearGradient id="paint4_linear_3721_515" x1="76.5" y1="53.6125" x2="52.8998" y2="46.4093" gradientUnits="userSpaceOnUse">
            <stop stop-color="#00CDBD"/>
            <stop offset="1" stop-color="#00DECD"/>
        </linearGradient>
        <linearGradient id="paint5_linear_3721_515" x1="59.5205" y1="63.9256" x2="47.9744" y2="58.3462" gradientUnits="userSpaceOnUse">
            <stop stop-color="#00CDBD"/>
            <stop offset="1" stop-color="#00DECD"/>
        </linearGradient>
    </defs>
</svg>
