<svg width="108" height="87" viewBox="0 0 108 87" fill="none" xmlns="http://www.w3.org/2000/svg">
    <path d="M93.0654 12.3132C94.2813 11.9675 95.6004 12.4974 96.249 13.7332C97.4781 16.0753 98.9785 19.5862 98.9785 22.9666V32.7849C98.9785 34.408 97.6625 35.7173 96.0449 35.7175H93.9756C92.3552 35.7175 91.0412 34.4043 91.041 32.7839V15.0789C91.041 13.7408 91.8835 12.6494 93.0654 12.3132Z" fill="white" stroke="#00CDBD" stroke-width="3.52095"/>
    <path d="M95.2998 40.6704C95.2998 37.0978 98.8024 34.5768 102.19 35.7104C104.323 36.4242 105.761 38.4213 105.761 40.6704V46.8677C105.761 49.0822 104.366 51.0569 102.279 51.7974C98.8749 53.0049 95.2998 50.4799 95.2998 46.8677V40.6704Z" fill="white" stroke="#00CDBD" stroke-width="3.52095"/>
    <path d="M86.1514 38.4609C86.1514 33.1784 91.3184 29.4419 96.335 31.0967C99.5129 32.1451 101.66 35.1145 101.66 38.4609V48.8555C101.66 52.1512 99.5767 55.0867 96.4658 56.1748C91.4246 57.9377 86.1514 54.196 86.1514 48.8555V38.4609Z" fill="white" stroke="#00CDBD" stroke-width="3.52095"/>
    <path d="M14.9346 12.3132C13.7187 11.9675 12.3996 12.4974 11.751 13.7332C10.5219 16.0753 9.02148 19.5862 9.02148 22.9666V32.7849C9.02148 34.408 10.3375 35.7173 11.9551 35.7175H14.0244C15.6448 35.7175 16.9588 34.4043 16.959 32.7839V15.0789C16.959 13.7408 16.1165 12.6494 14.9346 12.3132Z" fill="white" stroke="#00CDBD" stroke-width="3.52095"/>
    <path d="M12.7002 40.6704C12.7002 37.0978 9.19759 34.5768 5.80957 35.7104C3.67675 36.4242 2.23926 38.4213 2.23926 40.6704V46.8677C2.23926 49.0822 3.63362 51.0569 5.7207 51.7974C9.12515 53.0049 12.7002 50.4799 12.7002 46.8677V40.6704Z" fill="white" stroke="#00CDBD" stroke-width="3.52095"/>
    <path d="M21.8486 38.4609C21.8486 33.1784 16.6816 29.4419 11.665 31.0967C8.48707 32.1451 6.33984 35.1145 6.33984 38.4609V48.8555C6.33984 52.1512 8.42332 55.0867 11.5342 56.1748C16.5754 57.9377 21.8486 54.196 21.8486 48.8555V38.4609Z" fill="white" stroke="#00CDBD" stroke-width="3.52095"/>
    <path d="M64.0703 69.2629C69.7682 69.263 73.5197 75.2025 71.0723 80.3479C69.787 83.0498 67.0623 84.7717 64.0703 84.7717L44.1768 84.7717C41.2491 84.7717 38.571 83.1222 37.2529 80.5081C34.6528 75.3509 38.4011 69.2629 44.1768 69.2629L64.0703 69.2629Z" fill="white" stroke="#00CDBD" stroke-width="3.52095"/>
    <path d="M61.3066 17.7368C66.7674 17.7367 70.5172 12.2421 68.5273 7.15674C67.3642 4.18432 64.4985 2.2281 61.3066 2.22803L46.8857 2.22803C43.751 2.22812 40.9248 4.11578 39.7236 7.01123C37.6059 12.1172 41.358 17.7367 46.8857 17.7368L61.3066 17.7368Z" fill="white" stroke="#00CDBD" stroke-width="3.52095"/>
    <path d="M54 6.64453C76.5474 6.64473 95.1923 22.9194 95.1924 43.4209C95.1924 63.9225 76.5475 80.1971 54 80.1973C31.4523 80.1973 12.8066 63.9226 12.8066 43.4209C12.8067 22.9193 31.4524 6.64453 54 6.64453Z" fill="white" stroke="#00CDBD" stroke-width="3.52095"/>
    <path d="M53.9209 27.5601C62.0466 27.5601 69.2083 28.4567 74.3037 31.0327C76.8295 32.3097 78.8163 33.9845 80.1777 36.144C81.5377 38.3013 82.3213 41.0176 82.3213 44.4575C82.3213 58.1794 69.7415 69.5346 53.9209 69.5347C38.1003 69.5347 25.5205 58.1794 25.5205 44.4575C25.5205 41.0176 26.304 38.3013 27.6641 36.144C29.0256 33.9845 31.0122 32.3097 33.5381 31.0327C38.6335 28.4567 45.7952 27.5601 53.9209 27.5601Z" fill="#35383F" stroke="#424242" stroke-width="2.3473"/>
    <path d="M58.8895 17.5795C58.8895 20.0044 56.7004 21.9701 53.9999 21.9701C51.2995 21.9701 49.1104 20.0044 49.1104 17.5795C49.1104 15.1546 51.2995 14.5569 53.9999 14.5569C56.7004 14.5569 58.8895 15.1546 58.8895 17.5795Z" fill="url(#paint0_linear_3721_2753)"/>
    <path d="M72.0346 21.8984C71.0782 23.555 68.8072 24.0345 66.9623 22.9693C65.1174 21.9042 64.3972 19.6977 65.3537 18.0411C66.3101 16.3844 68.0415 16.8396 69.8864 17.9047C71.7313 18.9699 72.9911 20.2417 72.0346 21.8984Z" fill="url(#paint1_linear_3721_2753)"/>
    <path d="M35.9497 21.8984C36.9062 23.555 39.1771 24.0345 41.022 22.9693C42.8669 21.9042 43.5872 19.6977 42.6307 18.0411C41.6743 16.3844 39.9429 16.8396 38.098 17.9047C36.2531 18.9699 34.9933 20.2417 35.9497 21.8984Z" fill="url(#paint2_linear_3721_2753)"/>
    <path d="M88.4638 59.0364C66.303 81.2761 40.0411 80.8029 19.6152 59.0364C28.4783 71.5122 38.635 77.8407 53.9212 77.885C69.2885 77.9295 81.3661 69.8408 88.4638 59.0364Z" fill="#EEEEEE"/>
    <path d="M47.2098 34.9039C46.6108 34.7029 45.9808 34.6139 45.3499 34.6139C43.9599 34.6039 42.6109 35.0639 41.4999 35.9129C41.4099 35.8439 41.2999 35.7829 41.1999 35.7239C41.0999 35.6629 40.9199 35.5139 40.7699 35.4339L40.3899 35.2639C40.1899 35.1539 39.9809 35.0739 39.7599 35.0029C39.7399 34.9839 39.7099 34.9629 39.6699 34.9439H39.6109C39.0199 34.7429 38.4099 34.6329 37.7799 34.6139H37.6699C37.3899 34.6139 37.111 34.6329 36.83 34.6739H36.71C36.41 34.7129 36.111 34.7829 35.821 34.8829C32.09 36.1039 30.76 40.1539 31.89 43.6938C32.53 45.5028 33.561 47.1438 34.901 48.4928C36.85 50.3727 38.9809 52.0327 41.2699 53.4527L41.5299 53.6137L41.7799 53.4627C44.0609 52.0327 46.1798 50.3727 48.1108 48.5028C49.4598 47.1538 50.4898 45.5028 51.1198 43.6938C52.2308 40.1539 50.9008 36.1039 47.2098 34.9039Z" fill="url(#paint3_linear_3721_2753)"/>
    <path d="M44.7118 39.151C44.3748 39.0386 44.0205 38.9889 43.6655 38.9889C42.8837 38.9833 42.1249 39.2405 41.4999 39.7153C41.4493 39.6767 41.3874 39.6426 41.3312 39.6096C41.2749 39.5755 41.1737 39.4921 41.0893 39.4474L40.8756 39.3523C40.7631 39.2908 40.6455 39.2461 40.5212 39.2064C40.51 39.1958 40.4931 39.184 40.4706 39.1734H40.4374C40.105 39.061 39.7618 38.9995 39.4075 38.9889H39.3456C39.1881 38.9889 39.0312 38.9995 38.8731 39.0224H38.8056C38.6369 39.0442 38.4687 39.0834 38.3055 39.1393C36.2069 39.8221 35.4588 42.0869 36.0944 44.0664C36.4544 45.078 37.0343 45.9957 37.788 46.7501C38.8843 47.8014 40.083 48.7297 41.3706 49.5237L41.5168 49.6138L41.6574 49.5293C42.9405 48.7297 44.1324 47.8014 45.2186 46.7557C45.9774 46.0013 46.5568 45.078 46.9111 44.0664C47.5361 42.0869 46.7879 39.8221 44.7118 39.151Z" fill="white"/>
    <path d="M72.2098 34.9039C71.6108 34.7029 70.9808 34.6139 70.3499 34.6139C68.9599 34.6039 67.6109 35.0639 66.4999 35.9129C66.4099 35.8439 66.2999 35.7829 66.1999 35.7239C66.0999 35.6629 65.9199 35.5139 65.7699 35.4339L65.3899 35.2639C65.1899 35.1539 64.9809 35.0739 64.7599 35.0029C64.7399 34.9839 64.7099 34.9629 64.6699 34.9439H64.6109C64.0199 34.7429 63.4099 34.6329 62.7799 34.6139H62.6699C62.3899 34.6139 62.111 34.6329 61.83 34.6739H61.71C61.41 34.7129 61.111 34.7829 60.821 34.8829C57.09 36.1039 55.76 40.1539 56.89 43.6938C57.53 45.5028 58.561 47.1438 59.901 48.4928C61.85 50.3727 63.9809 52.0327 66.2699 53.4527L66.5299 53.6137L66.7799 53.4627C69.0609 52.0327 71.1798 50.3727 73.1108 48.5028C74.4598 47.1538 75.4898 45.5028 76.1198 43.6938C77.2308 40.1539 75.9008 36.1039 72.2098 34.9039Z" fill="url(#paint4_linear_3721_2753)"/>
    <path d="M69.7118 39.151C69.3748 39.0386 69.0205 38.9889 68.6655 38.9889C67.8837 38.9833 67.1249 39.2405 66.4999 39.7153C66.4493 39.6767 66.3874 39.6426 66.3312 39.6096C66.2749 39.5755 66.1737 39.4921 66.0893 39.4474L65.8756 39.3523C65.7631 39.2908 65.6455 39.2461 65.5212 39.2064C65.51 39.1958 65.4931 39.184 65.4706 39.1734H65.4374C65.105 39.061 64.7618 38.9995 64.4075 38.9889H64.3456C64.1881 38.9889 64.0312 38.9995 63.8731 39.0224H63.8056C63.6369 39.0442 63.4687 39.0834 63.3055 39.1393C61.2069 39.8221 60.4588 42.0869 61.0944 44.0664C61.4544 45.078 62.0343 45.9957 62.788 46.7501C63.8843 47.8014 65.083 48.7297 66.3706 49.5237L66.5168 49.6138L66.6574 49.5293C67.9405 48.7297 69.1324 47.8014 70.2186 46.7557C70.9774 46.0013 71.5568 45.078 71.9111 44.0664C72.5361 42.0869 71.7879 39.8221 69.7118 39.151Z" fill="white"/>
    <path d="M59.5205 60.0561C59.5205 62.5918 57.0489 63.9259 54 63.9259C50.9511 63.9259 48.4795 62.5918 48.4795 60.0561C48.4795 57.5203 50.9511 57.3013 54 57.3013C57.0489 57.3013 59.5205 57.5203 59.5205 60.0561Z" fill="url(#paint5_linear_3721_2753)"/>
    <defs>
        <linearGradient id="paint0_linear_3721_2753" x1="58.8895" y1="21.9701" x2="47.8848" y2="17.7611" gradientUnits="userSpaceOnUse">
            <stop stop-color="#00CDBD"/>
            <stop offset="1" stop-color="#00DECD"/>
        </linearGradient>
        <linearGradient id="paint1_linear_3721_2753" x1="70.3028" y1="24.898" x2="64.4448" y2="17.6818" gradientUnits="userSpaceOnUse">
            <stop stop-color="#00CDBD"/>
            <stop offset="1" stop-color="#00DECD"/>
        </linearGradient>
        <linearGradient id="paint2_linear_3721_2753" x1="37.6815" y1="24.898" x2="43.5396" y2="17.6818" gradientUnits="userSpaceOnUse">
            <stop stop-color="#00CDBD"/>
            <stop offset="1" stop-color="#00DECD"/>
        </linearGradient>
        <linearGradient id="paint3_linear_3721_2753" x1="51.5" y1="53.6137" x2="27.8995" y2="46.4108" gradientUnits="userSpaceOnUse">
            <stop stop-color="#00CDBD"/>
            <stop offset="1" stop-color="#00DECD"/>
        </linearGradient>
        <linearGradient id="paint4_linear_3721_2753" x1="76.5" y1="53.6137" x2="52.8995" y2="46.4108" gradientUnits="userSpaceOnUse">
            <stop stop-color="#00CDBD"/>
            <stop offset="1" stop-color="#00DECD"/>
        </linearGradient>
        <linearGradient id="paint5_linear_3721_2753" x1="59.5205" y1="63.9259" x2="47.9744" y2="58.3464" gradientUnits="userSpaceOnUse">
            <stop stop-color="#00CDBD"/>
            <stop offset="1" stop-color="#00DECD"/>
        </linearGradient>
    </defs>
</svg>
