<svg width="28" height="28" viewBox="0 0 28 28" fill="none" xmlns="http://www.w3.org/2000/svg">
    <path d="M23.8545 6.33374C24.1675 6.24598 24.4987 6.35961 24.6982 6.63159L24.7754 6.75757L24.8867 6.98706C25.1471 7.54815 25.4023 8.27353 25.4023 8.98218V11.4119C25.4023 11.8836 25.0197 12.2633 24.5508 12.2634H24.1191C23.6487 12.2634 23.2676 11.8813 23.2676 11.4109V7.1355C23.2676 6.7498 23.5087 6.43076 23.8545 6.33374Z" fill="white" stroke="#00CDBD" stroke-width="1.02208"/>
    <path d="M24.3408 13.4438C24.3408 12.4975 25.2686 11.8291 26.166 12.1294C26.7309 12.3185 27.1113 12.8481 27.1113 13.4438V15.0054C27.1113 15.5919 26.7421 16.1148 26.1895 16.311C25.2877 16.6309 24.3408 15.9622 24.3408 15.0054V13.4438Z" fill="white" stroke="#00CDBD" stroke-width="1.02208"/>
    <path d="M22.0352 12.887C22.0352 11.5099 23.3817 10.5358 24.6895 10.967C25.5179 11.2404 26.0781 12.0146 26.0781 12.887V15.5061C26.0781 16.3653 25.5346 17.1307 24.7236 17.4143C23.4094 17.8739 22.0352 16.8983 22.0352 15.5061V12.887Z" fill="white" stroke="#00CDBD" stroke-width="1.02208"/>
    <path d="M4.14648 6.33374C3.83347 6.24598 3.50228 6.35961 3.30273 6.63159L3.22559 6.75757L3.11426 6.98706C2.85388 7.54815 2.59867 8.27353 2.59863 8.98218V11.4119C2.59863 11.8836 2.98128 12.2633 3.4502 12.2634H3.88184C4.35224 12.2634 4.7334 11.8813 4.7334 11.4109V7.1355C4.7334 6.7498 4.49223 6.43076 4.14648 6.33374Z" fill="white" stroke="#00CDBD" stroke-width="1.02208"/>
    <path d="M3.66016 13.4438C3.66016 12.4975 2.7324 11.8291 1.83496 12.1294C1.27009 12.3185 0.889648 12.8481 0.889648 13.4438V15.0054C0.889648 15.5919 1.25883 16.1148 1.81152 16.311C2.71331 16.6309 3.66016 15.9622 3.66016 15.0054V13.4438Z" fill="white" stroke="#00CDBD" stroke-width="1.02208"/>
    <path d="M5.96582 12.887C5.96582 11.5099 4.61926 10.5358 3.31152 10.967C2.48305 11.2404 1.92285 12.0146 1.92285 12.887V15.5061C1.92285 16.3653 2.46637 17.1307 3.27734 17.4143C4.59155 17.8739 5.96582 16.8983 5.96582 15.5061V12.887Z" fill="white" stroke="#00CDBD" stroke-width="1.02208"/>
    <path d="M16.5381 20.582C18.0233 20.5823 19.0013 22.1304 18.3633 23.4717C18.0283 24.1759 17.3179 24.6248 16.5381 24.625L11.5244 24.625C10.7614 24.625 10.0634 24.1949 9.71973 23.5137C9.04183 22.1692 10.0187 20.582 11.5244 20.582L16.5381 20.582Z" fill="white" stroke="#00CDBD" stroke-width="1.02208"/>
    <path d="M15.8418 7.73145C17.2654 7.73143 18.2433 6.29934 17.7246 4.97363C17.4214 4.19871 16.6739 3.68849 15.8418 3.68848L12.208 3.68848C11.3909 3.68848 10.654 4.18084 10.3408 4.93555C9.78873 6.26665 10.767 7.73145 12.208 7.73145L15.8418 7.73145Z" fill="white" stroke="#00CDBD" stroke-width="1.02208"/>
    <path d="M14 4.802C19.7115 4.802 24.4482 8.926 24.4482 14.137C24.4481 19.3478 19.7114 23.4719 14 23.4719C8.28877 23.4717 3.55288 19.3477 3.55273 14.137C3.55273 8.92612 8.28868 4.80219 14 4.802Z" fill="white" stroke="#00CDBD" stroke-width="1.02208"/>
    <path d="M13.9805 10.1848C16.0262 10.1848 17.8216 10.4109 19.0957 11.0549C19.7263 11.3737 20.2207 11.7906 20.5586 12.3264C20.8961 12.8617 21.0918 13.538 21.0918 14.3977C21.0918 17.8258 17.9474 20.6719 13.9805 20.6721C10.0133 20.6721 6.86816 17.8259 6.86816 14.3977C6.86821 13.538 7.0639 12.8617 7.40137 12.3264C7.73929 11.7906 8.23361 11.3738 8.86426 11.0549C10.1385 10.4109 11.9345 10.1848 13.9805 10.1848Z" fill="#35383F" stroke="#424242" stroke-width="0.681388"/>
    <path d="M15.2329 7.62474C15.2329 8.23581 14.6812 8.73118 14.0007 8.73118C13.3202 8.73118 12.7686 8.23581 12.7686 7.62474C12.7686 7.01367 13.3202 6.86304 14.0007 6.86304C14.6812 6.86304 15.2329 7.01367 15.2329 7.62474Z" fill="url(#paint0_linear_3718_2859)"/>
    <path d="M18.5453 8.71312C18.3042 9.13059 17.732 9.25142 17.2671 8.983C16.8021 8.71458 16.6206 8.15856 16.8617 7.74109C17.1027 7.32361 17.539 7.4383 18.0039 7.70672C18.4688 7.97514 18.7863 8.29564 18.5453 8.71312Z" fill="url(#paint1_linear_3718_2859)"/>
    <path d="M9.4518 8.71312C9.69282 9.13059 10.2651 9.25142 10.73 8.983C11.1949 8.71458 11.3764 8.15856 11.1354 7.74109C10.8944 7.32361 10.4581 7.4383 9.99316 7.70672C9.52824 7.97514 9.21077 8.29564 9.4518 8.71312Z" fill="url(#paint2_linear_3718_2859)"/>
    <path d="M22.6848 18.0718C17.1003 23.6762 10.4823 23.5569 5.33496 18.0718C7.56846 21.2157 10.1279 22.8105 13.9801 22.8216C17.8526 22.8328 20.8962 20.7945 22.6848 18.0718Z" fill="#EEEEEE"/>
    <ellipse cx="16.762" cy="14.0971" rx="1.88801" ry="2.34511" fill="url(#paint3_linear_3718_2859)"/>
    <ellipse cx="17.0607" cy="13.6599" rx="1.31167" ry="1.62965" fill="white"/>
    <ellipse cx="11.2376" cy="14.0971" rx="1.88801" ry="2.34511" fill="url(#paint4_linear_3718_2859)"/>
    <ellipse cx="11.5353" cy="13.6599" rx="1.31167" ry="1.62965" fill="white"/>
    <path d="M15.3917 18.3287C15.3917 18.9677 14.7689 19.3039 14.0005 19.3039C13.2322 19.3039 12.6094 18.9677 12.6094 18.3287C12.6094 17.6897 13.2322 17.6345 14.0005 17.6345C14.7689 17.6345 15.3917 17.6897 15.3917 18.3287Z" fill="url(#paint5_linear_3718_2859)"/>
    <defs>
        <linearGradient id="paint0_linear_3718_2859" x1="15.2329" y1="8.73118" x2="12.4597" y2="7.6705" gradientUnits="userSpaceOnUse">
            <stop stop-color="#00CDBD"/>
            <stop offset="1" stop-color="#00DECD"/>
        </linearGradient>
        <linearGradient id="paint1_linear_3718_2859" x1="18.1089" y1="9.46902" x2="16.6326" y2="7.65053" gradientUnits="userSpaceOnUse">
            <stop stop-color="#00CDBD"/>
            <stop offset="1" stop-color="#00DECD"/>
        </linearGradient>
        <linearGradient id="paint2_linear_3718_2859" x1="9.88822" y1="9.46902" x2="11.3644" y2="7.65053" gradientUnits="userSpaceOnUse">
            <stop stop-color="#00CDBD"/>
            <stop offset="1" stop-color="#00DECD"/>
        </linearGradient>
        <linearGradient id="paint3_linear_3718_2859" x1="18.65" y1="16.4422" x2="14.0309" y2="15.3639" gradientUnits="userSpaceOnUse">
            <stop stop-color="#00CDBD"/>
            <stop offset="1" stop-color="#00DECD"/>
        </linearGradient>
        <linearGradient id="paint4_linear_3718_2859" x1="13.1256" y1="16.4422" x2="8.50648" y2="15.3639" gradientUnits="userSpaceOnUse">
            <stop stop-color="#00CDBD"/>
            <stop offset="1" stop-color="#00DECD"/>
        </linearGradient>
        <linearGradient id="paint5_linear_3718_2859" x1="15.3917" y1="19.3039" x2="12.4821" y2="17.8979" gradientUnits="userSpaceOnUse">
            <stop stop-color="#00CDBD"/>
            <stop offset="1" stop-color="#00DECD"/>
        </linearGradient>
    </defs>
</svg>
