<svg width="350" height="399" viewBox="0 0 350 399" fill="none" xmlns="http://www.w3.org/2000/svg">
    <circle cx="148.5" cy="393.5" r="5.5" fill="url(#paint0_linear_1339_42216)"/>
    <circle cx="54" cy="377" r="3" fill="url(#paint1_linear_1339_42216)"/>
    <circle cx="216.5" cy="367.5" r="9.5" fill="url(#paint2_linear_1339_42216)"/>
    <circle cx="272.5" cy="279.5" r="6.5" fill="url(#paint3_linear_1339_42216)"/>
    <circle cx="160.5" cy="71.5" r="6.5" fill="url(#paint4_linear_1339_42216)"/>
    <circle cx="297" cy="337" r="19" fill="url(#paint5_linear_1339_42216)"/>
    <circle cx="9.5" cy="295.5" r="9.5" fill="url(#paint6_linear_1339_42216)"/>
    <circle cx="344.5" cy="271.5" r="5.5" fill="url(#paint7_linear_1339_42216)"/>
    <circle cx="15.5" cy="195.5" r="5.5" fill="url(#paint8_linear_1339_42216)"/>
    <circle cx="340" cy="191" r="3" fill="url(#paint9_linear_1339_42216)"/>
    <circle cx="98" cy="331" r="6" fill="url(#paint10_linear_1339_42216)"/>
    <circle cx="37" cy="128" r="3" fill="url(#paint11_linear_1339_42216)"/>
    <circle cx="330.5" cy="98.5" r="13.5" fill="url(#paint12_linear_1339_42216)"/>
    <circle cx="29" cy="65" r="19" fill="url(#paint13_linear_1339_42216)"/>
    <circle cx="263.5" cy="31.5" r="6.5" fill="url(#paint14_linear_1339_42216)"/>
    <circle cx="128.5" cy="5.5" r="5.5" fill="url(#paint15_linear_1339_42216)"/>
    <path d="M283.268 111.992C284.961 111.49 286.889 112.089 287.979 113.771L288.082 113.937L288.791 115.158C292.461 121.582 297.776 132.594 297.776 142.834V171.688C297.776 174.126 295.796 176.064 293.392 176.064H284.622C282.2 176.064 280.237 174.101 280.237 171.679V116.14C280.237 114.096 281.546 112.503 283.268 111.992Z" fill="white" stroke="#00CDBD" stroke-width="5.26183"/>
    <path d="M292.076 192.109C292.076 183.72 300.301 177.802 308.255 180.467C313.259 182.144 316.631 186.831 316.631 192.109V209.39C316.631 214.586 313.36 219.22 308.463 220.959C300.471 223.798 292.076 217.871 292.076 209.39V192.109Z" fill="white" stroke="#00CDBD" stroke-width="5.26183"/>
    <path d="M266.645 179.88C266.645 169.721 276.583 162.538 286.229 165.725L295 168.623C301.107 170.64 305.231 176.346 305.231 182.778V218.043C305.231 224.378 301.228 230.02 295.25 232.114L286.48 235.185C276.787 238.58 266.645 231.385 266.645 221.115V179.88Z" fill="white" stroke="#00CDBD" stroke-width="5.26183"/>
    <path d="M66.7334 111.992C65.0399 111.49 63.1125 112.089 62.0225 113.771L61.9189 113.937L61.21 115.158C57.5403 121.582 52.2246 132.594 52.2246 142.834V171.688C52.2246 174.126 54.2046 176.064 56.6094 176.064H65.3789C67.8006 176.064 69.7637 174.101 69.7637 171.679V116.14C69.7637 114.096 68.4548 112.503 66.7334 111.992Z" fill="white" stroke="#00CDBD" stroke-width="5.26183"/>
    <path d="M57.9248 192.109C57.9246 183.72 49.6997 177.802 41.7461 180.467C36.7422 182.144 33.3702 186.831 33.3701 192.109V209.39C33.3701 214.586 36.6414 219.22 41.5381 220.959C49.5302 223.798 57.9248 217.871 57.9248 209.39V192.109Z" fill="white" stroke="#00CDBD" stroke-width="5.26183"/>
    <path d="M83.3564 179.88C83.3562 169.721 73.4177 162.538 63.7715 165.725L55.001 168.623C48.8943 170.64 44.7696 176.346 44.7695 182.778V218.043C44.7697 224.378 48.7728 230.02 54.751 232.114L63.5205 235.185C73.214 238.58 83.3562 231.385 83.3564 221.115V179.88Z" fill="white" stroke="#00CDBD" stroke-width="5.26183"/>
    <path d="M209.947 273.996C220.898 273.996 228.112 285.408 223.414 295.3L219.226 304.119C216.756 309.318 211.514 312.63 205.759 312.63L144.994 312.63C139.362 312.63 134.21 309.457 131.678 304.426L127.238 295.609C122.246 285.694 129.454 273.996 140.555 273.996L209.947 273.996Z" fill="white" stroke="#00CDBD" stroke-width="5.26183"/>
    <path d="M195.29 126.004C208.89 126.004 218.232 112.324 213.282 99.6563C210.387 92.2464 203.245 87.3692 195.29 87.3691L155.245 87.3691C147.432 87.3693 140.388 92.0762 137.398 99.2949C132.131 112.014 141.479 126.004 155.245 126.004L195.29 126.004Z" fill="white" stroke="#00CDBD" stroke-width="5.26183"/>
    <path d="M174.999 99.6643C236.695 99.6643 287.252 144.206 287.252 199.78C287.252 255.354 236.696 299.896 174.999 299.896C113.303 299.896 62.7471 255.354 62.7471 199.78C62.7473 144.206 113.303 99.6645 174.999 99.6643Z" fill="white" stroke="#00CDBD" stroke-width="5.26183"/>
    <path d="M174.781 154.109C197.423 154.109 217.63 156.602 232.125 163.94C239.34 167.593 245.094 172.424 249.053 178.712C253.009 184.998 255.243 192.851 255.243 202.667C255.243 241.871 219.419 273.994 174.781 273.994C130.144 273.994 94.3194 241.871 94.3193 202.667C94.3193 192.851 96.5541 184.998 100.511 178.712C104.47 172.424 110.224 167.593 117.438 163.94C131.933 156.602 152.139 154.109 174.781 154.109Z" fill="#35383F" stroke="#424242" stroke-width="3.50789"/>
    <path d="M188.593 127.836C188.593 134.587 182.508 140.06 175 140.06C167.493 140.06 161.407 134.587 161.407 127.836C161.407 121.086 167.493 119.421 175 119.421C182.508 119.421 188.593 121.086 188.593 127.836Z" fill="url(#paint16_linear_1339_42216)"/>
    <path d="M225.136 139.861C222.477 144.473 216.163 145.808 211.035 142.842C205.906 139.877 203.904 133.734 206.563 129.122C209.221 124.51 214.035 125.777 219.164 128.742C224.292 131.708 227.795 135.249 225.136 139.861Z" fill="url(#paint17_linear_1339_42216)"/>
    <path d="M124.819 139.861C127.478 144.473 133.792 145.808 138.92 142.842C144.049 139.877 146.051 133.734 143.393 129.122C140.734 124.51 135.92 125.777 130.792 128.742C125.663 131.708 122.16 135.249 124.819 139.861Z" fill="url(#paint18_linear_1339_42216)"/>
    <path d="M270.809 243.253C209.202 305.169 136.194 303.852 79.4102 243.253C104.05 277.986 132.285 295.605 174.781 295.728C217.502 295.852 251.077 273.333 270.809 243.253Z" fill="#EEEEEE"/>
    <ellipse cx="205.473" cy="199.34" rx="20.8281" ry="25.9081" fill="url(#paint19_linear_1339_42216)"/>
    <ellipse cx="208.761" cy="194.51" rx="14.47" ry="18.004" fill="white"/>
    <ellipse cx="144.523" cy="199.34" rx="20.8281" ry="25.9081" fill="url(#paint20_linear_1339_42216)"/>
    <ellipse cx="147.812" cy="194.51" rx="14.47" ry="18.004" fill="white"/>
    <path d="M190.346 246.092C190.346 253.152 183.475 256.866 174.999 256.866C166.523 256.866 159.652 253.152 159.652 246.092C159.652 239.033 166.523 238.423 174.999 238.423C183.475 238.423 190.346 239.033 190.346 246.092Z" fill="url(#paint21_linear_1339_42216)"/>
    <defs>
        <linearGradient id="paint0_linear_1339_42216" x1="154" y1="399" x2="140.911" y2="395.205" gradientUnits="userSpaceOnUse">
            <stop stop-color="#00CDBD"/>
            <stop offset="1" stop-color="#00DECD"/>
        </linearGradient>
        <linearGradient id="paint1_linear_1339_42216" x1="57" y1="380" x2="49.8605" y2="377.93" gradientUnits="userSpaceOnUse">
            <stop stop-color="#00CDBD"/>
            <stop offset="1" stop-color="#00DECD"/>
        </linearGradient>
        <linearGradient id="paint2_linear_1339_42216" x1="226" y1="377" x2="203.392" y2="370.445" gradientUnits="userSpaceOnUse">
            <stop stop-color="#00CDBD"/>
            <stop offset="1" stop-color="#00DECD"/>
        </linearGradient>
        <linearGradient id="paint3_linear_1339_42216" x1="279" y1="286" x2="263.531" y2="281.515" gradientUnits="userSpaceOnUse">
            <stop stop-color="#00CDBD"/>
            <stop offset="1" stop-color="#00DECD"/>
        </linearGradient>
        <linearGradient id="paint4_linear_1339_42216" x1="167" y1="78" x2="151.531" y2="73.515" gradientUnits="userSpaceOnUse">
            <stop stop-color="#00CDBD"/>
            <stop offset="1" stop-color="#00DECD"/>
        </linearGradient>
        <linearGradient id="paint5_linear_1339_42216" x1="316" y1="356" x2="270.783" y2="342.89" gradientUnits="userSpaceOnUse">
            <stop stop-color="#00CDBD"/>
            <stop offset="1" stop-color="#00DECD"/>
        </linearGradient>
        <linearGradient id="paint6_linear_1339_42216" x1="19" y1="305" x2="-3.60829" y2="298.445" gradientUnits="userSpaceOnUse">
            <stop stop-color="#00CDBD"/>
            <stop offset="1" stop-color="#00DECD"/>
        </linearGradient>
        <linearGradient id="paint7_linear_1339_42216" x1="350" y1="277" x2="336.911" y2="273.205" gradientUnits="userSpaceOnUse">
            <stop stop-color="#00CDBD"/>
            <stop offset="1" stop-color="#00DECD"/>
        </linearGradient>
        <linearGradient id="paint8_linear_1339_42216" x1="21" y1="201" x2="7.91099" y2="197.205" gradientUnits="userSpaceOnUse">
            <stop stop-color="#00CDBD"/>
            <stop offset="1" stop-color="#00DECD"/>
        </linearGradient>
        <linearGradient id="paint9_linear_1339_42216" x1="343" y1="194" x2="335.861" y2="191.93" gradientUnits="userSpaceOnUse">
            <stop stop-color="#00CDBD"/>
            <stop offset="1" stop-color="#00DECD"/>
        </linearGradient>
        <linearGradient id="paint10_linear_1339_42216" x1="104" y1="337" x2="89.7211" y2="332.86" gradientUnits="userSpaceOnUse">
            <stop stop-color="#00CDBD"/>
            <stop offset="1" stop-color="#00DECD"/>
        </linearGradient>
        <linearGradient id="paint11_linear_1339_42216" x1="40" y1="131" x2="32.8605" y2="128.93" gradientUnits="userSpaceOnUse">
            <stop stop-color="#00CDBD"/>
            <stop offset="1" stop-color="#00DECD"/>
        </linearGradient>
        <linearGradient id="paint12_linear_1339_42216" x1="344" y1="112" x2="311.872" y2="102.685" gradientUnits="userSpaceOnUse">
            <stop stop-color="#00CDBD"/>
            <stop offset="1" stop-color="#00DECD"/>
        </linearGradient>
        <linearGradient id="paint13_linear_1339_42216" x1="48" y1="84" x2="2.78341" y2="70.8899" gradientUnits="userSpaceOnUse">
            <stop stop-color="#00CDBD"/>
            <stop offset="1" stop-color="#00DECD"/>
        </linearGradient>
        <linearGradient id="paint14_linear_1339_42216" x1="270" y1="38" x2="254.531" y2="33.515" gradientUnits="userSpaceOnUse">
            <stop stop-color="#00CDBD"/>
            <stop offset="1" stop-color="#00DECD"/>
        </linearGradient>
        <linearGradient id="paint15_linear_1339_42216" x1="134" y1="11" x2="120.911" y2="7.20496" gradientUnits="userSpaceOnUse">
            <stop stop-color="#00CDBD"/>
            <stop offset="1" stop-color="#00DECD"/>
        </linearGradient>
        <linearGradient id="paint16_linear_1339_42216" x1="188.593" y1="140.06" x2="157.989" y2="128.372" gradientUnits="userSpaceOnUse">
            <stop stop-color="#00CDBD"/>
            <stop offset="1" stop-color="#00DECD"/>
        </linearGradient>
        <linearGradient id="paint17_linear_1339_42216" x1="220.321" y1="148.212" x2="204.007" y2="128.145" gradientUnits="userSpaceOnUse">
            <stop stop-color="#00CDBD"/>
            <stop offset="1" stop-color="#00DECD"/>
        </linearGradient>
        <linearGradient id="paint18_linear_1339_42216" x1="129.634" y1="148.212" x2="145.948" y2="128.145" gradientUnits="userSpaceOnUse">
            <stop stop-color="#00CDBD"/>
            <stop offset="1" stop-color="#00DECD"/>
        </linearGradient>
        <linearGradient id="paint19_linear_1339_42216" x1="226.301" y1="225.249" x2="175.336" y2="213.369" gradientUnits="userSpaceOnUse">
            <stop stop-color="#00CDBD"/>
            <stop offset="1" stop-color="#00DECD"/>
        </linearGradient>
        <linearGradient id="paint20_linear_1339_42216" x1="165.351" y1="225.249" x2="114.386" y2="213.369" gradientUnits="userSpaceOnUse">
            <stop stop-color="#00CDBD"/>
            <stop offset="1" stop-color="#00DECD"/>
        </linearGradient>
        <linearGradient id="paint21_linear_1339_42216" x1="190.346" y1="256.866" x2="158.231" y2="241.369" gradientUnits="userSpaceOnUse">
            <stop stop-color="#00CDBD"/>
            <stop offset="1" stop-color="#00DECD"/>
        </linearGradient>
    </defs>
</svg>
