<svg width="24" height="25" viewBox="0 0 24 25" fill="none" xmlns="http://www.w3.org/2000/svg">
    <path fill-rule="evenodd" clip-rule="evenodd" d="M0.333008 12.5174C0.333008 6.37156 5.24467 0.833252 12.023 0.833252C18.6497 0.833252 23.6663 6.2664 23.6663 12.4824C23.6663 19.6915 17.7863 24.1666 11.9997 24.1666C10.0863 24.1666 7.96301 23.6525 6.25967 22.6476C5.66467 22.2854 5.16301 22.0167 4.52134 22.227L2.16467 22.9281C1.56967 23.115 1.03301 22.6476 1.20801 22.0167L1.98967 19.3994C2.11801 19.0372 2.09467 18.6516 1.90801 18.3479C0.904674 16.5018 0.333008 14.4804 0.333008 12.5174ZM10.483 12.5174C10.483 13.347 11.148 14.013 11.9763 14.0247C12.8047 14.0247 13.4697 13.347 13.4697 12.5291C13.4697 11.6996 12.8047 11.0336 11.9763 11.0336C11.1597 11.0219 10.483 11.6996 10.483 12.5174ZM15.8613 12.5291C15.8613 13.347 16.5263 14.0247 17.3547 14.0247C18.183 14.0247 18.848 13.347 18.848 12.5291C18.848 11.6996 18.183 11.0336 17.3547 11.0336C16.5263 11.0336 15.8613 11.6996 15.8613 12.5291ZM6.59801 14.0247C5.78134 14.0247 5.10467 13.347 5.10467 12.5291C5.10467 11.6996 5.76967 11.0336 6.59801 11.0336C7.42634 11.0336 8.09134 11.6996 8.09134 12.5291C8.09134 13.347 7.42634 14.013 6.59801 14.0247Z" fill="#00CDBD"/>
</svg>
